<svg width="237" height="74" viewBox="0 0 237 74" fill="none" xmlns="http://www.w3.org/2000/svg">
<path d="M8.3232 73.2592C7.344 73.2592 6.12 73.2048 4.6512 73.096C3.1824 72.9872 1.7136 72.7696 0.2448 72.4432V60.9376C1.2784 61.1552 2.312 61.2912 3.3456 61.3456C4.3792 61.4544 5.1952 61.5088 5.7936 61.5088C8.2416 61.5088 9.928 60.8288 10.8528 59.4688C11.832 58.1088 12.3216 55.9056 12.3216 52.8592V0.471992H27.4176V52.8592C27.4176 57.4288 26.7648 61.2368 25.4592 64.2832C24.208 67.3296 22.1952 69.5872 19.4208 71.056C16.6464 72.5248 12.9472 73.2592 8.3232 73.2592ZM38.0556 58V0.471992H53.1516V22.6672H76.326V0.471992H91.422V58H76.326V34.9888H53.1516V58H38.0556ZM102.045 58V0.471992H125.219C132.019 0.471992 137.758 1.64159 142.437 3.98079C147.115 6.26559 150.651 9.5568 153.045 13.8544C155.493 18.0976 156.717 23.2112 156.717 29.1952C156.717 35.1248 155.493 40.2384 153.045 44.536C150.651 48.8336 147.115 52.152 142.437 54.4912C137.758 56.8304 132.019 58 125.219 58H102.045ZM117.141 45.76H124.24C130.169 45.76 134.549 44.4 137.377 41.68C140.261 38.96 141.702 34.7984 141.702 29.1952C141.702 23.5376 140.261 19.376 137.377 16.7104C134.549 13.9904 130.169 12.6304 124.24 12.6304H117.141V45.76ZM165.795 58V0.471992H180.891V25.1152H181.054L203.086 0.471992H220.711L192.804 30.7456V24.7888L222.262 58H204.065L181.054 32.0512H180.891V58H165.795Z" fill="white"/>
<path d="M221.454 58V43.1488H236.55V58H221.454Z" fill="#85BFD1"/>
</svg>
